# xmcd CD database file generated by OrangeCD 5.0
#
# Track frame offsets:
#	150
#	17360
#	34688
#
# Disc length: 697 seconds
#
# Revision: 1
# Processed by: cddbd v1.4PL0 Copyright (c) Steve Scherf et al.
# Submitted via: OrangeCD 5.0
#
DISCID=1402b703
DTITLE=Dixie Chicks - Landslide
DYEAR=2003
DGENRE=Top 40
TTITLE0=Landslide (The Sheryl Crow Remix)
TTITLE1=Landslide
TTITLE2=Landslide (Live)
EXTD=
EXTT0=
EXTT1=
EXTT2=
PLAYORDER=
